<svg xmlns="http://www.w3.org/2000/svg" viewBox="0 0 500 310"><defs><style>.cls-1{fill:#04266c;}</style></defs><g id="Capa_2" data-name="Capa 2"><g id="Capa_1-2" data-name="Capa 1"><path class="cls-1" d="M0,112.4c0-9,.55-25.64,1.42-42.24C2,59.47,3.31,48.85,7.64,38.66a36.3,36.3,0,0,1,4.8-8.25c6.54-8.33,16-11,27.24-7.61A39.89,39.89,0,0,1,46,25.25c21.21,10.59,43.06,20.23,64.56,30.38,30.55,14.41,61.3,28.53,91.64,43.24a58.47,58.47,0,0,1,12.92,8c5.73,5,6.71,10,2.53,15.93a87.57,87.57,0,0,1-18,18.24,15.29,15.29,0,0,1-5.4,2.73c-2.87.76-4.71.22-6.33-1.88a37.1,37.1,0,0,0-4.44-4.52,159.83,159.83,0,0,0-15.37-12.71,19.79,19.79,0,0,0-8.94-3.81,6.77,6.77,0,0,0-5.41,1.43Q126.78,144,99.41,165.33A111,111,0,0,1,85.3,175a22,22,0,0,1-5.07,2.17c-2.84.77-5,.31-6.43-1.78-5.31-8.06-7.62-16.48-3.75-25.49a18,18,0,0,1,5.8-7.31c15.41-11.66,30.71-23.42,46.74-34.49,1.8-1.24,3.69-2.4,5.37-3.75,3-2.42,2.75-4.2-.86-6a68.61,68.61,0,0,0-10-3.79c-10.12-3.29-20.16-6.73-30-10.67a29,29,0,0,0-8.08-2c-6.18-.57-11.06,1.33-14.86,5.32-4.51,4.75-6.62,10.38-8.11,16.17-3.28,12.8-3.61,25.79-3.12,38.81a323.61,323.61,0,0,0,10.33,69.31,96,96,0,0,0,9.3,23.63,36,36,0,0,0,5.78,7.81c5.28,5.31,11.58,6.75,19.34,4.39,6.8-2.06,12.61-5.54,18.24-9.21q64-41.68,123.72-87.67C296.15,107.08,351.51,62.76,406.48,18.1a97.3,97.3,0,0,1,24-14.75c15.22-6.35,28-3.68,37.59,8.06A72.9,72.9,0,0,1,481.68,38.1a327.34,327.34,0,0,1,8.58,42.38c1.88,13,3.32,26,4.48,39q1.68,19,2.72,38.05c.82,14.7,1.52,29.41,1.84,44.13.34,15.24,1.27,30.49.2,45.74-.59,8.43-1.62,16.84-5.44,24.79-5.44,11.35-14.48,13.74-26.59,12.43-14.8-1.61-28.49-6.09-41.75-11.65-22.48-9.43-44-20.27-65.26-31.49-23.88-12.61-47.61-25.42-71.4-38.15a25.6,25.6,0,0,1-5.35-3.74c-2.59-2.44-3.27-5-1.25-7.64,5.12-6.76,10.86-13.14,18.43-18.14,2.69-1.78,5.79-3,9.45-2.15a6.08,6.08,0,0,1,2.44,1c5.77,4.68,12.68,8.07,19.18,11.92q31.38,18.59,63.92,35.75a77.34,77.34,0,0,0,21.42,7.81c12.83,2.46,21-1.58,24.55-12.15,1.91-5.61,2.29-11.4,2.83-17.16a376.52,376.52,0,0,0,1.8-40.56,234.26,234.26,0,0,0-8.71-58.95c-2-7.29-3.33-14.73-6.44-21.79a30.48,30.48,0,0,0-6.19-9.41c-6.52-6.54-14.85-7.63-24.18-5.47-9,2.08-16.77,6.14-24.23,10.66-15,9.06-28.09,19.8-41,30.79-15.29,13-29.81,26.71-44.86,39.95-14.67,12.92-30.48,24.84-46.05,37-41.12,32-82.47,63.86-125,94.58-14.73,10.63-29.87,20.79-47,28.62a63.57,63.57,0,0,1-17.12,5.46C47,311,40.2,308.39,34.76,302.81c-4-4.09-6.42-8.87-8.78-13.67-6.25-12.76-10.38-26-13.64-39.53a400.74,400.74,0,0,1-8.56-51.53C1,172.09,0,146.05,0,112.4Z"/></g></g></svg>