<svg xmlns="http://www.w3.org/2000/svg" viewBox="0 0 96.74 127.83"><defs><style>.cls-1{fill:#0087eb;}.cls-2{fill:#fefefe;}.cls-3{fill:#0287eb;}</style></defs><g id="Capa_2" data-name="Capa 2"><g id="Capa_1-2" data-name="Capa 1"><path class="cls-1" d="M96.74,83c.05,7.47-2.73,13.19-8.59,17.55C79.49,107,71.36,114.1,62.8,120.68c-4.14,3.19-8.29,6-13.43,7.15h-3C37,124.93,30.63,117.55,23,112.05c-5-3.59-9.43-7.87-14.4-11.51C2.72,96.22,0,90.47,0,83,.16,60.05,0,37.11.09,14.17.12,5,1.34,3.25,9.43,0H86.31c9,2.77,10.31,4.5,10.35,14.2"/><path class="cls-2" d="M72.18,55.29c5.81,2.61,6.61,7,7.2,12.37,1.18,10.68-1.92,18.69-11.17,24.47-3.56,2.23-6.5,5.45-10.64,9,0-11.08,0-21,0-30.87,0-8.2-10.06-13.79-17.33-9.67-1.69,1-1,2.66-1,4,0,10.14,0,20.29,0,30.43v6.2C32,94.91,25.63,89.43,19.44,83.81c-1.68-1.53-1.91-3.77-1.91-6,0-18,0-35.92,0-53.88,0-6.17,2.68-8.81,8.87-8.85q22-.11,43.9,0c6.19,0,8.74,2.67,8.82,8.9s-.17,12.31.08,18.46C79.47,48.05,78.28,52.7,72.18,55.29Z"/><path class="cls-3" d="M39.16,36.36c0-11.09,0-11.15,11.18-11.07,8.16.05,7.14-1.14,7.24,7.05,0,.5,0,1,0,1.49,0,13.11-1.49,14.41-14.63,14.11-3.19-.07-4-1.21-3.82-4.1C39.31,41.36,39.16,38.86,39.16,36.36Z"/></g></g></svg>