<svg xmlns="http://www.w3.org/2000/svg" viewBox="0 0 463.46 272.28"><defs><style>.cls-1{fill:#fefefe;}.cls-2{fill:#009091;}.cls-3{fill:#b9cdfb;}.cls-19,.cls-4{fill:#fe5549;}.cls-5{fill:#00b6cb;}.cls-6{fill:#fe8cbb;}.cls-18,.cls-7{fill:#58bf2d;}.cls-8{fill:#e48be0;}.cls-9{fill:#feb738;}.cls-10{fill:#feb93c;}.cls-11{fill:#079293;}.cls-12{fill:#bdd0fb;}.cls-13{fill:#c6bcd2;}.cls-14{font-size:12px;fill:#081b3e;font-family:Poppins-Regular, Poppins;}.cls-15,.cls-16,.cls-17{fill:none;stroke:#081b3e;}.cls-15{stroke-width:3px;}.cls-17{stroke-width:2px;}.cls-18,.cls-19{font-size:25px;font-family:Poppins-Medium, Poppins;font-weight:500;}</style></defs><g id="Capa_2" data-name="Capa 2"><g id="Capa_1-2" data-name="Capa 1"><path class="cls-1" d="M462.28,198.8c-11.3-.92-19.54-5.6-21.77-18.53-2.19,10.52-8,16.65-18.52,19,11.38,1.35,16,8.6,17.87,19.38,2.4-3.14,2.8-5.6,3.6-7.85,2.52-7.16,11-12.1,18.82-11"/><path class="cls-1" d="M309.76,21.33c-.7-.34-1.42-.61-2.1-1a6.28,6.28,0,0,0-1.72-.8.4.4,0,0,1-.35-.41l-.16,0c.89,2.21,3,2.94,4.86,3.83h2.36C311.7,22.36,310.74,21.81,309.76,21.33Z"/><path class="cls-1" d="M296.24,19.6a9.6,9.6,0,0,1-1.91.75c-.72.31-1.4.67-2.09,1-.94.52-1.87,1.05-2.85,1.51h2c.38-.25.77-.49,1.18-.73,1.28-.74,3.32-.76,3.7-2.62C296.27,19.57,296.26,19.59,296.24,19.6Z"/><path class="cls-1" d="M298.62,44.68a12.86,12.86,0,0,1,1.08-14.61c3.51-4.67,8.51-5.91,13.93-4.32a6.11,6.11,0,0,0-3.34-2.84H291.4c-6.57,4.26-9.49,10.32-8.75,18.4a18.25,18.25,0,0,0,12.57,15.31c7.82,2.48,14.33.19,20.57-6.59C308.15,52.23,302.2,51.1,298.62,44.68Z"/><path class="cls-2" d="M299.86,44.68a11.59,11.59,0,0,1,.44-13.53c4.65-5.84,10.5-6,17.29-2.47-2.63-5.47-7.27-7.19-11.5-9.38a17.72,17.72,0,0,0-1.94-.24,5.37,5.37,0,0,0-1.65,0,3.51,3.51,0,0,1-1.33.06.49.49,0,0,1-.25.07l-.06,0a.43.43,0,0,1-.22.06,16.6,16.6,0,0,0-2.73.14,22.41,22.41,0,0,1-2.68.57h-.07c-.71.27-1.55.3-2.23.61A20,20,0,0,0,284.33,50c4.35,6.45,10.66,9.57,18.37,8.79,6.85-.7,12.27-4,16.36-11.56C311.17,50.94,304.75,51.57,299.86,44.68Z"/><path class="cls-3" d="M454.9,195.93c-6.34-1.19-9.78-5-11.07-11a5.36,5.36,0,0,0-.49-1.41c-1-1.75-.41-5.18-3-5.06-2.29.11-2.35,3.37-2.82,5.3-1.53,6.22-4.19,10.92-11.22,12.22-2.22.42-6.27.8-6.28,2.9,0,3,4,2.86,6.36,3.32,6.22,1.23,9.36,4.86,10.58,10.83a13.56,13.56,0,0,0,3.84,7.53c.68-1.33,1.55-2.31,1.67-3.37,1.32-11.2,9.17-15.17,18.81-17.23.32-.07.66-.08,1-.12v-1C459.83,197.81,457.45,196.4,454.9,195.93Z"/><path class="cls-4" d="M91,207.29c-2.54,4.35-5.88,7.3-11,7.62-2.86.18-4.68-.48-3.61-3.88,1.28-4.07-.06-6.61-3.45-9.53-4.38-3.78-4.3-9.86-4.13-15.37.08-2.56,2.17-2.42,4.14-2,8.11,1.59,14.81,5.06,18.11,14,3.25-8.81,10-12.27,18-14,3-.63,4.59.34,4.35,3.48-.46,6.12-.43,12.5-6.75,16.2-3.15,1.84-1.37,4.67-.86,6.7,1,4.13-.85,4.64-4.07,4.41C96.68,214.53,93.7,211.26,91,207.29Z"/><path class="cls-5" d="M327,198.12a10.7,10.7,0,0,1,0,2.15c-.82,2.89.79,7.16-2.71,8.39-3,1.06-5.26-2.19-7.27-4.32-1.45-1.53-2.38-1.92-3.7.11a21.19,21.19,0,0,1-6.1,5.79,16,16,0,0,1-24.55-9.34c-1.29-5.22,1.84-8.89,5.28-12.12,4.48-4.2,9.75-5.47,15.62-3.22,4,1.52,7,4.33,9.7,7.57,1,1.23,1.64,2.45,3.37.67,2.25-2.32,4.75-6.25,8-4.67S326.4,195.44,327,198.12Z"/><path class="cls-6" d="M375.37,207.55c4.85,2.07,4,3.84.58,5.49a8.22,8.22,0,0,1-2.72,1.19c-5.74.32-12.1-1.11-14.81,7.46-.73-2-1.15-2.59-1-2.78,3.8-4.82,2.79-9.51-.12-14.29a4.84,4.84,0,0,1-.47-3.36c.38-1.55-.17-3.69,1.5-4.54,2-1,2.11,2.08,4.21,2.32-3.32-5.66,1.05-8.55,3.9-12.1a28.57,28.57,0,0,1,15.67-9.86c2.7-.7,4.38-.05,5.16,2.9,2.57,9.69-1.12,17.86-6.05,25.74C380,207.66,377.79,206.45,375.37,207.55Z"/><path class="cls-7" d="M232.3,34c2-2.52,3.45-5,5.75-6.65,4.09-3,8.29-3.21,12.57-.56,3.23,2,4.9,4.9,4.46,8.78S251.9,41,248.6,41.44C241.11,42.44,237,46.65,236,54c-2.32.24-2-2.41-3.76-3.26L229.25,55a11.14,11.14,0,0,1-.62-1.7c-1.1-6.42-4.51-10.38-11.19-11.62s-8.88-4.24-7.56-9.25c1.42-5.36,7.58-8.68,13.05-7C226.24,26.43,228.58,28.53,232.3,34Z"/><path class="cls-8" d="M156.46,36.09c.19-2.39-.05-4.6-3.11-5.75a4.17,4.17,0,0,1-2.55-5.72,4.1,4.1,0,0,1,4.81-2.7c2.77.42,3.92,2.23,3.83,4.93,0,.17,0,.33,0,.5.07,5.39,2.33,9.21,5.36,8.36,4.13-1.17,6.11-4.05,5-8.74A4,4,0,0,1,172.89,22c2.36-.61,4.41.21,5.29,2.57s.49,4.65-1.86,5.58c-5,2-4.26,5.86-3.32,9.55,1.13,4.45,3.44,4.84,6.55,1.44,1.39-1.51,2.84-3.08,5.08-1.49,1.34,1,2.81,2,2.29,4-.55,2.2-1.94,3.6-4.31,3.24-3.59-.55-5.92,1.25-8.26,3.61-6.93,7-12.9,7.05-19.67,0-2.31-2.4-4.5-4.3-8.17-3.64a3.18,3.18,0,0,1-4-2.74,4.23,4.23,0,0,1,1.67-4.41c1.87-1.39,3.47-.5,5,.58s1.74,4.72,4.74,3.09C156.58,42,156.49,39,156.46,36.09Z"/><path class="cls-9" d="M9.36,206.85a14,14,0,0,1,13.81-14,14.28,14.28,0,0,1,14.15,13.82,14.09,14.09,0,0,1-14.27,14.12A13.54,13.54,0,0,1,9.36,206.85Z"/><path class="cls-10" d="M8.3,193.91c-3.46-.39-5.83-2.16-5.77-6s2.38-5.9,6-5.85a5.42,5.42,0,0,1,5.72,5.66C14.27,191.32,12.26,193.59,8.3,193.91Z"/><path class="cls-10" d="M38.25,193.9c-3.61-.27-5.74-2.17-5.86-5.91s2.18-5.68,5.42-5.87a5.61,5.61,0,0,1,6.28,5.63C44.26,191.4,42,193.45,38.25,193.9Z"/><path class="cls-10" d="M22.92,189c-3.37-.49-5.61-2.33-5.44-6.14.16-3.5,2.35-5.61,5.69-5.63a5.65,5.65,0,0,1,6,6C29.17,186.68,27,188.86,22.92,189Z"/><path class="cls-11" d="M311,30.62c2.19,3.43,3.19,6.25,6.92,6.57-1.95,3-5.92,3.24-5.61,7.76-2.91-2.72-4-5.8-7.61-6.47C307.09,36.06,310.17,35,311,30.62Z"/><path class="cls-12" d="M451.83,190.73c-1.22.06-2.3.06-2.4-1.65-.19-3,3.08-6.22,6.74-6.71,1.21-.16,1.86-.12,1.94,1.28C458.3,186.74,455,190.54,451.83,190.73Z"/><path class="cls-12" d="M451.38,207.84c3.11-.18,6.35,3.09,6.65,6.66.09,1.1.08,1.87-1.43,1.86-3.08,0-6.88-3.39-7.13-6.39C449.35,208.48,449.9,207.79,451.38,207.84Z"/><path class="cls-12" d="M432.08,207.8c0,4.17-3.49,7.89-6.53,7.94-1.35,0-2.26-.34-2.06-2,.5-4.07,3.22-5.75,6.89-6.52C431.78,207,432.07,207.66,432.08,207.8Z"/><path class="cls-12" d="M430.08,190.75a7.56,7.56,0,0,1-6.66-6.45c-.23-1.19-.13-2.25,1.77-2.06,3.28.32,6.69,3.77,6.75,6.91C432,190.7,431.11,190.71,430.08,190.75Z"/><path class="cls-13" d="M170,183.39c-2.66-3.23-6.91-1.48-10.41-1.5-3.8,0-8.1-1.53-11.16,2.38-3.51,4.47-7.41,9.14-7.71,14.79-.43,8.43,10,17.63,19.51,17.63,2.81-.92,7.46.64,10-2.55,3.53-4.5,8.06-9.22,8-15.15S173.77,188,170,183.39Zm-9,23.25c-4,0-8-3.73-7.41-7.69.42-2.67-.94-7.23,4.42-7.12,3.66,0,8.19,4,8.29,7.31C166.34,201.77,162.88,206.66,161,206.64Z"/><text class="cls-14" transform="translate(27.85 242.46)">Bestia / Bicho / Mech</text><text class="cls-14" transform="translate(175.82 11.3)">Reptil / Planta / Dusk</text><text class="cls-14" transform="translate(314.15 242.46)">Pez / Pájaro / Dawn</text><line class="cls-15" x1="82.7" y1="154.84" x2="125.98" y2="79.86"/><polyline class="cls-16" points="118.62 79.86 127.79 76.69 130.96 85.87"/><path class="cls-16" d="M118.62,79.86l12.34,6Z"/><line class="cls-16" x1="119.95" y1="79.75" x2="130.32" y2="84.77"/><line class="cls-17" x1="120.89" y1="79.37" x2="129.92" y2="83.68"/><line class="cls-17" x1="126.83" y1="77.53" x2="125.14" y2="80.43"/><line class="cls-17" x1="125.33" y1="77.92" x2="124.14" y2="80.05"/><line class="cls-17" x1="123.95" y1="78.53" x2="122.82" y2="79.36"/><line class="cls-17" x1="122.8" y1="78.95" x2="122.48" y2="79.17"/><line class="cls-17" x1="127.6" y1="77.87" x2="126.58" y2="81.93"/><line class="cls-17" x1="127.72" y1="79.24" x2="128.86" y2="82.39"/><line class="cls-16" x1="126.88" y1="76.91" x2="127.94" y2="78.32"/><line class="cls-15" x1="154.73" y1="80.81" x2="111.44" y2="155.79"/><polyline class="cls-16" points="118.81 155.79 109.63 158.96 106.46 149.78"/><path class="cls-16" d="M118.81,155.79l-12.35-6Z"/><line class="cls-16" x1="117.47" y1="155.9" x2="107.11" y2="150.88"/><line class="cls-17" x1="116.54" y1="156.28" x2="107.51" y2="151.97"/><line class="cls-17" x1="110.59" y1="158.12" x2="112.29" y2="155.22"/><line class="cls-17" x1="112.09" y1="157.74" x2="113.29" y2="155.6"/><line class="cls-17" x1="113.48" y1="157.12" x2="114.61" y2="156.29"/><line class="cls-17" x1="114.62" y1="156.71" x2="114.95" y2="156.49"/><line class="cls-17" x1="109.83" y1="157.78" x2="110.84" y2="153.72"/><line class="cls-17" x1="109.71" y1="156.41" x2="108.56" y2="153.27"/><line class="cls-16" x1="110.54" y1="158.74" x2="109.48" y2="157.33"/><text class="cls-18" transform="translate(22.29 122.58)">+15%</text><text class="cls-19" transform="translate(152.52 122.58)">-15%</text><line class="cls-15" x1="355.22" y1="162.58" x2="323.66" y2="81.96"/><polyline class="cls-16" points="319.06 87.72 322.31 78.57 331.46 81.82"/><path class="cls-16" d="M319.06,87.72l12.4-5.9Z"/><line class="cls-16" x1="319.8" y1="86.6" x2="330.19" y2="81.64"/><line class="cls-17" x1="320.09" y1="85.64" x2="329.1" y2="81.27"/><line class="cls-17" x1="322.37" y1="79.85" x2="323.57" y2="82.98"/><line class="cls-17" x1="321.73" y1="81.26" x2="322.65" y2="83.52"/><line class="cls-17" x1="321.35" y1="82.72" x2="321.28" y2="84.12"/><line class="cls-17" x1="320.95" y1="83.88" x2="320.92" y2="84.27"/><line class="cls-17" x1="323.11" y1="79.46" x2="325.65" y2="82.79"/><line class="cls-17" x1="324.25" y1="80.22" x2="327.42" y2="81.29"/><line class="cls-16" x1="321.91" y1="79.42" x2="323.67" y2="79.47"/><text class="cls-18" transform="translate(369.21 122.49)">+15%</text><text class="cls-19" transform="translate(266.18 122.49)">-15%</text><line class="cls-15" x1="348.09" y1="75.35" x2="379.64" y2="155.96"/><polyline class="cls-16" points="384.24 150.21 380.99 159.35 371.84 156.1"/><path class="cls-16" d="M384.24,150.21l-12.4,5.89Z"/><line class="cls-16" x1="383.5" y1="151.32" x2="373.11" y2="156.29"/><line class="cls-17" x1="383.21" y1="152.29" x2="374.21" y2="156.66"/><line class="cls-17" x1="380.94" y1="158.08" x2="379.73" y2="154.95"/><line class="cls-17" x1="381.57" y1="156.67" x2="380.65" y2="154.41"/><line class="cls-17" x1="381.95" y1="155.21" x2="382.02" y2="153.81"/><line class="cls-17" x1="382.35" y1="154.05" x2="382.38" y2="153.66"/><line class="cls-17" x1="380.19" y1="158.47" x2="377.66" y2="155.14"/><line class="cls-17" x1="379.05" y1="157.71" x2="375.88" y2="156.64"/><line class="cls-16" x1="381.39" y1="158.51" x2="379.63" y2="158.46"/><line class="cls-15" x1="271.41" y1="191.31" x2="195.82" y2="192.33"/><polyline class="cls-16" points="199.59 198.66 192.17 192.4 198.43 184.98"/><path class="cls-16" d="M199.59,198.66,198.43,185Z"/><line class="cls-16" x1="198.81" y1="197.58" x2="197.82" y2="186.1"/><line class="cls-17" x1="198" y1="196.96" x2="197.08" y2="187"/><line class="cls-17" x1="193.38" y1="192.8" x2="196.74" y2="192.77"/><line class="cls-17" x1="194.48" y1="193.89" x2="196.92" y2="193.82"/><line class="cls-17" x1="195.72" y1="194.76" x2="197" y2="195.31"/><line class="cls-17" x1="196.66" y1="195.54" x2="197.01" y2="195.7"/><line class="cls-17" x1="193.28" y1="191.97" x2="197.29" y2="190.76"/><line class="cls-17" x1="194.4" y1="191.17" x2="196.51" y2="188.57"/><line class="cls-16" x1="192.82" y1="193.07" x2="193.49" y2="191.44"/><line class="cls-15" x1="193.07" y1="215.45" x2="268.66" y2="214.43"/><polyline class="cls-16" points="264.89 208.1 272.31 214.36 266.05 221.78"/><path class="cls-16" d="M264.89,208.1l1.16,13.68Z"/><line class="cls-16" x1="265.68" y1="209.18" x2="266.67" y2="220.66"/><line class="cls-17" x1="266.48" y1="209.8" x2="267.4" y2="219.76"/><line class="cls-17" x1="271.1" y1="213.96" x2="267.74" y2="213.99"/><line class="cls-17" x1="270" y1="212.87" x2="267.56" y2="212.94"/><line class="cls-17" x1="268.77" y1="212" x2="267.48" y2="211.45"/><line class="cls-17" x1="267.83" y1="211.22" x2="267.47" y2="211.06"/><line class="cls-17" x1="271.2" y1="214.79" x2="267.19" y2="216"/><line class="cls-17" x1="270.09" y1="215.59" x2="267.97" y2="218.19"/><line class="cls-16" x1="271.66" y1="213.69" x2="270.99" y2="215.32"/><text class="cls-19" transform="translate(196.21 246.55)">-15%</text><text class="cls-18" transform="translate(196.06 181.37)">+15%</text></g></g></svg>